<?xml version="1.0" encoding="utf-8"?>
<!-- Generator: Adobe Illustrator 24.1.3, SVG Export Plug-In . SVG Version: 6.00 Build 0)  -->
<svg version="1.1" id="_x30_" xmlns="http://www.w3.org/2000/svg" xmlns:xlink="http://www.w3.org/1999/xlink" x="0px" y="0px"
	 viewBox="0 0 623.6 623.6" style="enable-background:new 0 0 623.6 623.6;" xml:space="preserve">
<style type="text/css">
	
		.st0{display:none;fill:#FFFFFF;stroke:#000000;stroke-width:0.7087;stroke-linecap:round;stroke-linejoin:round;stroke-miterlimit:10;}
</style>
<path d="M0.7,0.3v623.6h623.6V0.3H0.7z M340.5,553.4h-258V433h258V553.4z"/>
<path class="st0" d="M82.5,432v120.5h258V432H82.5z M271,521.2H152c-11.3,0-20.5-9.2-20.5-20.6c0-11.4,9.2-20.5,20.5-20.5h119
	c11.4,0,20.6,9.2,20.6,20.5C291.6,512,282.4,521.2,271,521.2z"/>
<path d="M291.6,501.7c0,11.4-9.2,20.6-20.6,20.6H152c-11.3,0-20.5-9.2-20.5-20.6c0-11.4,9.2-20.5,20.5-20.5h119
	C282.4,481.1,291.6,490.3,291.6,501.7z"/>
</svg>
